# xmcd
#
# Track frame offsets:
#	150
#	9912
#	22494
#	36444
#	47388
#	61404
#	71035
#	82216
#	94115
#	106515
#	121430
#	131402
#	141777
#	155379
#	165332
#	175607
#	188733
#	198854
#	209950
#	224885
#	235163
#	246739
#	257952
#	270989
#
# Disc length: 3744 seconds
# Revision: 0
# Processed by: cddbd v1.5.2PL0 Copyright (c) Steve Scherf et al.
# Submitted via: dBpowerAMP V12.0
#
DISCID=630e9e18
DTITLE=Charley Pride - Country Charley Pride/Pride Of Country Music
DYEAR=2013
DGENRE=Country
TTITLE0=Busted
TTITLE1=Distant Drums
TTITLE2=Detroit City
TTITLE3=Yonder Comes A Sucker
TTITLE4=Green, Green Grass Of Home
TTITLE5=That's The Chance I'll Have To Take
TTITLE6=Before I Met You
TTITLE7=Folsom Prison Blues
TTITLE8=The Snakes Crawl At Night
TTITLE9=Miller's Cave
TTITLE10=The Atlantic Coastal Line
TTITLE11=Got Leavin' On Her Mind
TTITLE12=In The Middle Of Nowhere
TTITLE13=The Last Thing On My Mind
TTITLE14=Just Between You And Me
TTITLE15=Apartment #9
TTITLE16=Spell Of The Freight Train
TTITLE17=I Know One
TTITLE18=I'm Not The Boy I Used To Be
TTITLE19=A Good Woman's Love
TTITLE20=Silence
TTITLE21=Take Me Home
TTITLE22=Touch My Heart
TTITLE23=Best Banjo Picker
EXTD=
EXTT0=
EXTT1=
EXTT2=
EXTT3=
EXTT4=
EXTT5=
EXTT6=
EXTT7=
EXTT8=
EXTT9=
EXTT10=
EXTT11=
EXTT12=
EXTT13=
EXTT14=
EXTT15=
EXTT16=
EXTT17=
EXTT18=
EXTT19=
EXTT20=
EXTT21=
EXTT22=
EXTT23=
PLAYORDER=
